<svg width="21" height="21" viewBox="0 0 21 21" fill="none" xmlns="http://www.w3.org/2000/svg">
<path d="M15.25 2.27093C13.8526 1.46262 12.2303 1 10.5 1C5.25329 1 1 5.25329 1 10.5C1 12.0197 1.35684 13.456 1.99129 14.7299C2.15989 15.0684 2.21601 15.4553 2.11826 15.8206L1.55243 17.9354C1.3068 18.8533 2.14666 19.6932 3.06468 19.4476L5.17942 18.8818C5.54473 18.784 5.93165 18.8401 6.27015 19.0087C7.54395 19.6432 8.98028 20 10.5 20C15.7467 20 20 15.7467 20 10.5C20 8.76967 19.5374 7.14733 18.7291 5.75" stroke="white" stroke-linecap="round"/>
</svg>
