<svg width="21" height="21" viewBox="0 0 21 21" fill="none" xmlns="http://www.w3.org/2000/svg">
<path d="M5.12031 11.0627H15.8828V13.2188H16.9328V9.94273H11.0266V7.70268H9.97656V9.94273H4.07031V13.2188H5.12031V11.0627Z" fill="white"/>
<path d="M7.875 14.0026H1.3125C0.964403 14.0026 0.630564 14.1501 0.384422 14.4127C0.138281 14.6753 0 15.0314 0 15.4027V19.6027C0 19.9741 0.138281 20.3302 0.384422 20.5927C0.630564 20.8553 0.964403 21.0028 1.3125 21.0028H7.875C8.2231 21.0028 8.55694 20.8553 8.80308 20.5927C9.04922 20.3302 9.1875 19.9741 9.1875 19.6027V15.4027C9.1875 15.0314 9.04922 14.6753 8.80308 14.4127C8.55694 14.1501 8.2231 14.0026 7.875 14.0026ZM1.3125 19.6027V15.4027H7.875V19.6027H1.3125Z" fill="white"/>
<path d="M19.6875 14.0026H13.125C12.7769 14.0026 12.4431 14.1501 12.1969 14.4127C11.9508 14.6753 11.8125 15.0314 11.8125 15.4027V19.6027C11.8125 19.9741 11.9508 20.3302 12.1969 20.5927C12.4431 20.8553 12.7769 21.0028 13.125 21.0028H19.6875C20.0356 21.0028 20.3694 20.8553 20.6156 20.5927C20.8617 20.3302 21 19.9741 21 19.6027V15.4027C21 15.0314 20.8617 14.6753 20.6156 14.4127C20.3694 14.1501 20.0356 14.0026 19.6875 14.0026ZM13.125 19.6027V15.4027H19.6875V19.6027H13.125Z" fill="white"/>
<path d="M7.21875 7.00014H13.7812C14.1293 7.00014 14.4632 6.85263 14.7093 6.59008C14.9555 6.32752 15.0937 5.97142 15.0937 5.60011V1.40003C15.0937 1.02872 14.9555 0.672614 14.7093 0.410058C14.4632 0.147502 14.1293 0 13.7812 0H7.21875C6.87065 0 6.53681 0.147502 6.29067 0.410058C6.04453 0.672614 5.90625 1.02872 5.90625 1.40003V5.60011C5.90625 5.97142 6.04453 6.32752 6.29067 6.59008C6.53681 6.85263 6.87065 7.00014 7.21875 7.00014ZM7.21875 1.40003H13.7812V5.60011H7.21875V1.40003Z" fill="white"/>
</svg>
