<svg width="20" height="20" viewBox="0 0 20 20" fill="none" xmlns="http://www.w3.org/2000/svg">
<path d="M2.5 2.85714H7.5V7.14286H2.5V2.85714ZM3.75 5.71429H6.25V4.28571H3.75V5.71429ZM2.5 8.57143H7.5V12.8571H2.5V8.57143ZM3.75 11.4286H6.25V10H3.75V11.4286ZM8.75 2.85714H13.75V7.14286H8.75V2.85714ZM10 5.71429H12.5V4.28571H10V5.71429ZM15 2.85714H20V7.14286H15V2.85714ZM16.25 5.71429H18.75V4.28571H16.25V5.71429ZM8.75 8.57143H13.75V12.8571H8.75V8.57143ZM10 11.4286H12.5V10H10V11.4286ZM15 8.57143H20V12.8571H15V8.57143ZM16.25 11.4286H18.75V10H16.25V11.4286ZM2.5 14.2857H7.5V18.5714H2.5V14.2857ZM3.75 17.1429H6.25V15.7143H3.75V17.1429ZM15 14.2857H20V18.5714H15V14.2857ZM16.25 17.1429H18.75V15.7143H16.25V17.1429ZM20 0V1.42857H1.25V20H0V0H20Z" fill="#F7F5FE"/>
</svg>
