<svg width="22" height="26" viewBox="0 0 22 26" fill="none" xmlns="http://www.w3.org/2000/svg">
<path fill-rule="evenodd" clip-rule="evenodd" d="M4.12451 4.06221C3.94218 4.06221 3.76731 4.14781 3.63838 4.30019C3.50944 4.45256 3.43701 4.65922 3.43701 4.87471V21.1247C3.43701 21.3402 3.50944 21.5469 3.63838 21.6992C3.76731 21.8516 3.94218 21.9372 4.12451 21.9372H11.3433C11.6168 21.9372 11.8791 22.0656 12.0725 22.2942C12.2659 22.5227 12.3745 22.8327 12.3745 23.156C12.3745 23.4792 12.2659 23.7892 12.0725 24.0177C11.8791 24.2463 11.6168 24.3747 11.3433 24.3747H4.12451C3.39517 24.3747 2.69569 24.0323 2.17997 23.4228C1.66424 22.8133 1.37451 21.9867 1.37451 21.1247V4.87471C1.37451 4.01276 1.66424 3.18611 2.17997 2.57661C2.69569 1.96712 3.39517 1.62471 4.12451 1.62471H17.8745C18.6039 1.62471 19.3033 1.96712 19.8191 2.57661C20.3348 3.18611 20.6245 4.01276 20.6245 4.87471V15.031C20.6245 15.3542 20.5159 15.6642 20.3225 15.8927C20.1291 16.1213 19.8668 16.2497 19.5933 16.2497C19.3198 16.2497 19.0575 16.1213 18.8641 15.8927C18.6707 15.6642 18.562 15.3542 18.562 15.031V4.87471C18.562 4.65922 18.4896 4.45256 18.3606 4.30019C18.2317 4.14781 18.0569 4.06221 17.8745 4.06221H4.12451ZM21.0095 18.2322C21.2026 18.4607 21.3111 18.7705 21.3111 19.0935C21.3111 19.4164 21.2026 19.7262 21.0095 19.9547L17.572 24.0172C17.3787 24.2454 17.1165 24.3736 16.8433 24.3736C16.57 24.3736 16.3079 24.2454 16.1145 24.0172L14.7395 22.3922C14.6382 22.2806 14.5569 22.1461 14.5006 21.9966C14.4442 21.8471 14.4139 21.6857 14.4114 21.5221C14.409 21.3584 14.4345 21.1959 14.4863 21.0441C14.5382 20.8924 14.6154 20.7545 14.7133 20.6388C14.8113 20.523 14.9279 20.4318 15.0563 20.3705C15.1847 20.3092 15.3223 20.2791 15.4607 20.282C15.5992 20.2849 15.7358 20.3207 15.8623 20.3873C15.9888 20.4539 16.1026 20.55 16.197 20.6697L16.8433 21.4335L19.552 18.2322C19.7454 18.004 20.0075 17.8758 20.2808 17.8758C20.554 17.8758 20.8162 18.004 21.0095 18.2322ZM6.53076 6.49971C6.25726 6.49971 5.99496 6.62811 5.80156 6.85667C5.60816 7.08523 5.49951 7.39523 5.49951 7.71846C5.49951 8.04169 5.60816 8.35169 5.80156 8.58025C5.99496 8.80881 6.25726 8.93721 6.53076 8.93721H15.4683C15.7418 8.93721 16.0041 8.80881 16.1975 8.58025C16.3909 8.35169 16.4995 8.04169 16.4995 7.71846C16.4995 7.39523 16.3909 7.08523 16.1975 6.85667C16.0041 6.62811 15.7418 6.49971 15.4683 6.49971H6.53076ZM5.49951 12.9997C5.49951 12.6765 5.60816 12.3665 5.80156 12.1379C5.99496 11.9094 6.25726 11.781 6.53076 11.781H15.4683C15.7418 11.781 16.0041 11.9094 16.1975 12.1379C16.3909 12.3665 16.4995 12.6765 16.4995 12.9997C16.4995 13.3229 16.3909 13.6329 16.1975 13.8615C16.0041 14.0901 15.7418 14.2185 15.4683 14.2185H6.53076C6.25726 14.2185 5.99496 14.0901 5.80156 13.8615C5.60816 13.6329 5.49951 13.3229 5.49951 12.9997ZM6.53076 17.0622C6.25726 17.0622 5.99496 17.1906 5.80156 17.4192C5.60816 17.6477 5.49951 17.9577 5.49951 18.281C5.49951 18.6042 5.60816 18.9142 5.80156 19.1427C5.99496 19.3713 6.25726 19.4997 6.53076 19.4997H11.3433C11.6168 19.4997 11.8791 19.3713 12.0725 19.1427C12.2659 18.9142 12.3745 18.6042 12.3745 18.281C12.3745 17.9577 12.2659 17.6477 12.0725 17.4192C11.8791 17.1906 11.6168 17.0622 11.3433 17.0622H6.53076Z" fill="#F7F5FE"/>
</svg>
