<svg width="20" height="27" viewBox="0 0 20 27" fill="none" xmlns="http://www.w3.org/2000/svg">
<path d="M19 9.75073C19.0001 8.58901 18.7625 7.43882 18.3007 6.36738C17.8389 5.29596 17.1624 4.32474 16.3105 3.51028C15.4586 2.69583 14.4485 2.05451 13.339 1.62373C12.2297 1.19295 11.0431 0.981374 9.84866 1.00129C7.55568 1.06759 5.37244 1.97125 3.73374 3.5324C2.09504 5.09356 1.12108 7.19769 1.00578 9.42574C0.950971 10.9125 1.2869 12.3883 1.98183 13.7137C2.67677 15.039 3.70776 16.1702 4.97734 17.0003C5.33516 17.2265 5.62941 17.5357 5.83361 17.9001C6.03781 18.2645 6.14551 18.6726 6.14698 19.0876V21H13.8588V19.0876C13.8588 18.6738 13.9646 18.2664 14.1665 17.9021C14.3684 17.5377 14.6602 17.2279 15.0156 17.0003C16.2394 16.2017 17.243 15.1229 17.9377 13.8588C18.6325 12.5948 18.9973 11.184 19 9.75073Z" stroke="white" stroke-linecap="round" stroke-linejoin="round"/>
<path d="M13 25C12.1345 25.6491 11.0819 26 10 26C8.9181 26 7.86548 25.6491 7 25" stroke="white" stroke-linecap="round" stroke-linejoin="round"/>
</svg>
