<svg width="23" height="22" viewBox="0 0 23 22" fill="none" xmlns="http://www.w3.org/2000/svg">
<g clip-path="url(#clip0_1_80)">
<path d="M2.03675 10.277L20.9296 2.05844M20.9296 2.05844L17.3975 0.785583M20.9296 2.05844L19.6153 5.43701M21.7675 21.2142H17.6603V10.2142C17.6603 10.0058 17.7469 9.80592 17.9009 9.65857C18.055 9.51122 18.2639 9.42844 18.4817 9.42844H20.946C21.1639 9.42844 21.3728 9.51122 21.5269 9.65857C21.6809 9.80592 21.7675 10.0058 21.7675 10.2142V21.2142ZM13.5532 21.2142H9.44604V12.5713C9.44604 12.3629 9.53258 12.1631 9.68663 12.0157C9.84067 11.8684 10.0496 11.7856 10.2675 11.7856H12.7318C12.9496 11.7856 13.1585 11.8684 13.3126 12.0157C13.4666 12.1631 13.5532 12.3629 13.5532 12.5713V21.2142ZM5.33889 21.2142H1.23175V14.9284C1.23175 14.7201 1.31829 14.5202 1.47234 14.3729C1.62639 14.2255 1.83532 14.1427 2.05318 14.1427H4.51746C4.73532 14.1427 4.94425 14.2255 5.0983 14.3729C5.25235 14.5202 5.33889 14.7201 5.33889 14.9284V21.2142Z" stroke="#F7F5FE" stroke-width="1.3" stroke-linecap="round" stroke-linejoin="round"/>
</g>
<defs>
<clipPath id="clip0_1_80">
<rect width="23" height="22" fill="white"/>
</clipPath>
</defs>
</svg>
